<?xml version="1.0" encoding="UTF-8" standalone="no"?>
<svg
    xmlns:dc="http://purl.org/dc/elements/1.1/"
    xmlns:cc="http://creativecommons.org/ns#"
    xmlns:rdf="http://www.w3.org/1999/02/22-rdf-syntax-ns#"
    xmlns:svg="http://www.w3.org/2000/svg"
    xmlns="http://www.w3.org/2000/svg"
    id="svg8"
    version="1.1"
    viewBox="0 0 150.875 150.933"
    height="150.933mm"
    width="150.875mm">
    <defs
        id="defs2" />
    <metadata
        id="metadata5">
        <rdf:RDF>
            <cc:Work
                rdf:about="">
                <dc:format>image/svg+xml</dc:format>
                <dc:type
                    rdf:resource="http://purl.org/dc/dcmitype/StillImage" />
                <dc:title></dc:title>
            </cc:Work>
        </rdf:RDF>
    </metadata>
    <g
        transform="translate(0,-146.067)"
        id="layer1">
        <g
            transform="translate(-349.12563,-2.01416e-6)"
            id="g4986">
            <path
                id="rect4640"
                fill="#27adf6"
                d="m 376.74658,296.99998 h 95.63309 c 15.30196,0 27.62089,-12.31893 27.62089,-27.62089 v -95.69121 c 0,-15.30196 -12.31893,-27.62086 -27.62089,-27.62086 h -95.63309 c -15.30196,0 -27.62088,12.3189 -27.62088,27.62086 v 95.69121 c 0,15.30196 12.31892,27.62089 27.62088,27.62089 z"
                />
            <g
                id="g4884"
                fill="#fff"
                transform="matrix(12.915223,0,0,12.915223,-1038.4878,-1144.0664)">
                <path
                    id="path4707"
                    d="m 108.49485,108.82489 0.96057,-6.17842 h 1.652 l -0.96056,6.17842 z" />
                <path
                    id="path4709"
                    d="m 111.47177,108.82489 0.95643,-6.17842 h 1.85074 l 1.27938,3.05123 q 0.0165,0.038 0.0538,0.13082 0.21115,0.50222 0.29396,0.87782 v -0.15615 q 0,-0.16881 0.0165,-0.37139 0.0207,-0.20678 0.0579,-0.49798 l 0.46786,-3.03435 h 1.61889 l -0.95643,6.17842 h -1.78036 l -1.35804,-3.14407 q -0.14905,-0.34184 -0.22772,-0.56552 -0.0745,-0.22367 -0.12836,-0.44734 v 0.17303 q 0,0.16881 -0.0165,0.35872 -0.0124,0.18569 -0.0497,0.49799 l -0.45958,3.12719 z" />
            </g>
        </g>
    </g>
</svg>
