<?xml version="1.0" encoding="UTF-8" standalone="no"?>
<svg
    class="logo-gawein"
    xmlns:dc="http://purl.org/dc/elements/1.1/"
    xmlns:cc="http://creativecommons.org/ns#"
    xmlns:rdf="http://www.w3.org/1999/02/22-rdf-syntax-ns#"
    xmlns:svg="http://www.w3.org/2000/svg"
    xmlns="http://www.w3.org/2000/svg"
    id="svg8"
    version="1.1"
    viewBox="0 0 500 150.933"
    height="150.933mm"
    width="500mm">
    <defs
        id="defs2" />
    <metadata
        id="metadata5">
        <rdf:RDF>
            <cc:Work
                rdf:about="">
                <dc:format>image/svg+xml</dc:format>
                <dc:type
                    rdf:resource="http://purl.org/dc/dcmitype/StillImage" />
                <dc:title></dc:title>
            </cc:Work>
        </rdf:RDF>
    </metadata>
    <g
        transform="translate(0,-146.067)"
        id="layer1">
        <g
            transform="matrix(12.915223,0,0,12.915223,-1038.4878,-1144.0664)"
            id="g4666">
            <path
                id="rect4640"
                fill="#27adf6"
                d="m 109.57878,-111.5789 h 7.40468 c 1.1848,0 2.13863,0.95383 2.13863,2.13863 v 7.40918 c 0,1.1848 -0.95383,2.138628 -2.13863,2.138628 h -7.40468 c -1.1848,0 -2.13863,-0.953828 -2.13863,-2.138628 v -7.40918 c 0,-1.1848 0.95383,-2.13863 2.13863,-2.13863 z"
                transform="scale(1,-1)" />
            <g
                class="text-in"
                fill="#fff"
                id="g4884">
                <path
                    id="path4707"
                    d="m 108.49485,108.82489 0.96057,-6.17842 h 1.652 l -0.96056,6.17842 z" />
                <path
                    id="path4709"
                    d="m 111.47177,108.82489 0.95643,-6.17842 h 1.85074 l 1.27938,3.05123 q 0.0165,0.038 0.0538,0.13082 0.21115,0.50222 0.29396,0.87782 v -0.15615 q 0,-0.16881 0.0165,-0.37139 0.0207,-0.20678 0.0579,-0.49798 l 0.46786,-3.03435 h 1.61889 l -0.95643,6.17842 h -1.78036 l -1.35804,-3.14407 q -0.14905,-0.34184 -0.22772,-0.56552 -0.0745,-0.22367 -0.12836,-0.44734 v 0.17303 q 0,0.16881 -0.0165,0.35872 -0.0124,0.18569 -0.0497,0.49799 l -0.45958,3.12719 z" />
            </g>
            <g
               class="text-gawe"
               id="g4880">
                <path
                    id="path4712"
                    d="m 83.699591,105.46188 3.04317,0.004 q -0.03726,1.65011 -0.890179,2.587 -0.852916,0.93689 -2.314465,0.93689 -1.436708,0 -2.285482,-0.79762 -0.844635,-0.79763 -0.844635,-2.13967 0,-0.73854 0.260843,-1.40112 0.260843,-0.66679 0.749406,-1.16901 0.463721,-0.47266 1.097197,-0.72166 0.637617,-0.25321 1.378742,-0.25321 0.869477,0 1.519515,0.35451 0.650037,0.3545 1.12618,1.08882 l -1.291794,0.89891 q -0.227721,-0.41781 -0.567231,-0.6246 -0.33537,-0.20679 -0.78667,-0.20679 -0.761828,0 -1.258671,0.56129 -0.496844,0.5613 -0.496844,1.418 0,0.709 0.393335,1.13947 0.393335,0.42624 1.039231,0.42624 0.240142,0 0.451301,-0.0548 0.215299,-0.0591 0.397475,-0.16881 0.161474,-0.10129 0.277404,-0.25322 0.115931,-0.15614 0.186317,-0.36294 h -1.378742 z" />
                <path
                    id="path4714"
                    d="m 86.469496,108.82541 3.034889,-6.17844 h 2.02878 l 1.287653,6.17844 h -1.643725 l -0.244281,-1.16479 h -2.119869 l -0.579651,1.16479 z m 2.952082,-2.54059 h 1.279373 l -0.277404,-1.44332 q -0.0414,-0.21524 -0.0621,-0.38404 -0.0207,-0.16882 -0.02484,-0.31652 -0.08695,0.25321 -0.161473,0.44734 -0.07039,0.18992 -0.11179,0.28276 z" />
                <path
                    id="path4716"
                    d="m 94.323771,108.82541 -1.113758,-6.17844 h 1.610602 l 0.467862,3.33399 q 0.0414,0.29964 0.05796,0.52331 0.0207,0.21946 0.02898,0.41781 0.07452,-0.30386 0.144913,-0.55286 0.07038,-0.25321 0.124211,-0.42202 l 1.076495,-3.30023 h 1.494673 l 0.438879,3.33399 q 0.0414,0.2912 0.05796,0.51487 0.0207,0.22368 0.02898,0.42625 0.03312,-0.17303 0.09523,-0.38405 0.06624,-0.21523 0.198738,-0.59083 l 1.221398,-3.30023 h 1.681 l -2.538048,6.17844 h -1.660285 l -0.414037,-2.87399 q -0.0414,-0.2912 -0.0621,-0.51486 -0.0207,-0.2279 -0.02484,-0.43048 -0.07038,0.27854 -0.140772,0.52754 -0.06625,0.24477 -0.128351,0.44734 l -0.919161,2.84445 z" />
                <path
                    id="path4718"
                    d="m 103.46156,107.44961 h 1.87558 l -0.21115,1.3758 h -3.49447 l 0.95643,-6.17844 h 3.49446 l -0.21943,1.42644 h -1.8756 l -0.15319,1.00865 h 1.73896 l -0.20288,1.34203 h -1.74724 z" />
            </g>
        </g>
    </g>
</svg>
