<?xml version="1.0" encoding="utf-8"?>
<!-- Generator: Adobe Illustrator 24.3.0, SVG Export Plug-In . SVG Version: 6.00 Build 0)  -->
<svg version="1.1"
	 id="svg8" xmlns:cc="http://creativecommons.org/ns#" xmlns:dc="http://purl.org/dc/elements/1.1/" xmlns:rdf="http://www.w3.org/1999/02/22-rdf-syntax-ns#" xmlns:svg="http://www.w3.org/2000/svg"
	 xmlns="http://www.w3.org/2000/svg" xmlns:xlink="http://www.w3.org/1999/xlink" x="0px" y="0px" viewBox="0 0 1417.3 427.8"
	 style="enable-background:new 0 0 1417.3 427.8;" xml:space="preserve">
<style type="text/css">
	.st0{fill:#FFFFFF;}
</style>
<path class="st0" d="M1339,0h-271.1c-43.4,0-78.3,34.9-78.3,78.3v271.2c0,43.4,34.9,78.3,78.3,78.3H1339c43.4,0,78.3-34.9,78.3-78.3
	V78.3C1417.3,34.9,1382.4,0,1339,0z M1088.7,327h-60.5l35.2-226.2h60.5L1088.7,327z M1343.7,327h-65.2l-49.7-115.1
	c-3.6-8.3-6.4-15.2-8.3-20.7c-1.8-5.5-3.4-10.9-4.7-16.4v6.3c0,4.1-0.2,8.5-0.6,13.1c-0.3,4.5-0.9,10.6-1.8,18.2L1196.5,327h-59.3
	l35-226.2h67.8l46.8,111.7c0.4,0.9,1.1,2.5,2,4.8c5.2,12.3,8.7,23,10.8,32.1v-5.7c0-4.1,0.2-8.6,0.6-13.6c0.5-5,1.2-11.1,2.1-18.2
	l17.1-111.1h59.3L1343.7,327z"/>
<g>
	<path class="st0" d="M231.9,204c-0.9,40.3-11.8,71.8-32.6,94.7c-20.8,22.9-49.1,34.3-84.7,34.3c-35.1,0-62.9-9.7-83.7-29.2
		C10.3,284.4,0,258.3,0,225.5c0-18,3.2-35.1,9.5-51.3c6.4-16.3,15.5-30.5,27.4-42.8c11.3-11.5,24.7-20.3,40.2-26.4
		c15.6-6.2,32.4-9.3,50.5-9.3c21.2,0,39.8,4.3,55.6,13c15.9,8.6,29.6,21.9,41.2,39.9l-47.3,32.9c-5.6-10.2-12.5-17.8-20.8-22.9
		c-8.2-5-17.8-7.6-28.8-7.6c-18.6,0-34,6.8-46.1,20.5c-12.1,13.7-18.2,31-18.2,51.9c0,17.3,4.8,31.2,14.4,41.7
		c9.6,10.4,22.3,15.6,38,15.6c5.9,0,11.4-0.7,16.5-2c5.2-1.4,10.1-3.5,14.5-6.2c3.9-2.5,7.3-5.6,10.2-9.3c2.8-3.8,5.1-8.2,6.8-13.3
		h-50.5l7.1-46.2L231.9,204z"/>
	<path class="st0" d="M407.3,100.8H333L221.9,327h64.6l21.2-42.6h77.6l8.9,42.6h60.2L407.3,100.8z M330,234l23.5-51.8
		c1-2.3,2.4-5.7,4.1-10.4c1.8-4.7,3.8-10.2,5.9-16.4c0.1,3.6,0.4,7.5,0.9,11.6c0.5,4.1,1.3,8.8,2.3,14.1l10.2,52.8H330z"/>
	<path class="st0" d="M788.2,100.8L695.3,327h-60.8l-15.2-105.2c-1-7.1-1.8-13.4-2.3-18.8c-0.5-5.6-0.8-10.8-0.9-15.8
		c-1.7,6.8-3.4,13.2-5.2,19.3c-1.6,6-3.2,11.4-4.7,16.4L572.7,327h-63.2l-40.8-226.2h59l17.1,122.1c1,7.3,1.7,13.7,2.1,19.2
		c0.5,5.4,0.9,10.5,1.1,15.3c1.8-7.4,3.6-14.2,5.3-20.2c1.7-6.2,3.2-11.3,4.5-15.4l39.4-120.8h54.7L668,222.9
		c1,7.1,1.7,13.4,2.1,18.9c0.5,5.5,0.9,10.7,1.1,15.6c0.8-4.2,2-8.9,3.5-14.1c1.6-5.2,4-12.5,7.3-21.6l44.7-120.8H788.2z"/>
	<polygon class="st0" points="863.2,153.1 857.6,190 921.3,190 913.9,239.1 849.9,239.1 844,276.7 912.7,276.7 904.9,327 777,327 
		812,100.8 939.9,100.8 931.9,153.1 	"/>
</g>
</svg>
